<svg width="31" height="43" viewBox="0 0 31 43" fill="none" xmlns="http://www.w3.org/2000/svg">
<path d="M29.7831 15.8256C29.7831 20.479 27.4334 25.8169 24.5533 30.5289C21.6824 35.2259 18.3337 39.2223 16.436 41.1723C16.0656 41.5529 15.6931 41.6647 15.3491 41.626C14.9865 41.5853 14.5766 41.3673 14.1815 40.937C12.3145 38.9035 8.93286 34.9905 6.02097 30.3869C3.0989 25.7672 0.699219 20.5278 0.699219 15.8256C0.699219 7.63963 7.21806 1.01855 15.2411 1.01855C23.2642 1.01855 29.7831 7.63963 29.7831 15.8256Z" stroke="#4A6AD0"/>
<path d="M22.6552 15.4133C22.6552 19.3724 19.5036 22.5668 15.6342 22.5668C11.7649 22.5668 8.61328 19.3724 8.61328 15.4133C8.61328 11.4542 11.7649 8.25977 15.6342 8.25977C19.5036 8.25977 22.6552 11.4542 22.6552 15.4133Z" stroke="#4A6AD0"/>
</svg>
