<svg width="108" height="108" viewBox="0 0 108 108" fill="none" xmlns="http://www.w3.org/2000/svg">
<path fill-rule="evenodd" clip-rule="evenodd" d="M80.6102 80.6103C95.4501 65.7704 95.4501 41.7101 80.6102 26.8702C65.7702 12.0303 41.71 12.0303 26.8701 26.8702C12.0301 41.7101 12.0301 65.7704 26.8701 80.6103C41.71 95.4502 65.7702 95.4502 80.6102 80.6103ZM64.1036 43.0231C60.6866 46.4402 55.1464 46.4402 51.7293 43.0231L51.0222 43.7303C53.7368 46.4448 57.6538 47.2241 61.0588 46.068L43.6638 63.463L44.3709 64.1701L61.7659 46.7751C60.6098 50.1801 61.3891 54.0971 64.1036 56.8117L64.8108 56.1046C61.3937 52.6875 61.3937 47.1473 64.8108 43.7303L64.1036 43.0231Z" fill="#F0F1F8"/>
</svg>
