<svg width="312" height="310" viewBox="0 0 312 310" fill="none" xmlns="http://www.w3.org/2000/svg">
<path fill-rule="evenodd" clip-rule="evenodd" d="M308.763 0C309.844 0 310.922 0.0055464 312 0.0166123V161.861C310.924 161.837 309.845 161.826 308.764 161.826C227.613 161.826 161.826 227.612 161.826 308.763C161.826 308.965 161.827 309.166 161.828 309.367H0.000577432C0.000192536 309.166 0 308.965 0 308.763C0 288.938 1.86859 269.548 5.43926 250.762C8.33654 251.114 11.2865 251.295 14.2788 251.295C54.3393 251.295 86.8148 218.819 86.8148 178.759C86.8148 156.758 77.0197 137.045 61.5525 123.742C84.3285 93.3593 112.575 67.3134 144.83 47.0654C158.078 61.3561 177.013 70.3003 198.036 70.3003C236.554 70.3003 268.06 40.2774 270.429 2.35637C282.989 0.801033 295.783 0 308.763 0Z" fill="#F0F1F8"/>
</svg>
