<svg width="41" height="41" viewBox="0 0 41 41" fill="none" xmlns="http://www.w3.org/2000/svg">
<path d="M18.077 22.4278C20.0046 24.513 22.1049 26.2427 23.4492 27.2742C24.3069 27.9322 25.4574 28.0111 26.4265 27.5324L28.282 26.6159C29.257 26.1343 30.4162 26.2181 31.3119 26.8347L37.3962 31.0239C38.877 32.0435 39.1347 34.1276 37.9468 35.4771L35.1207 38.6877C34.3858 39.5225 33.2451 39.8948 32.1842 39.5608C23.6068 36.8606 15.8557 29.8449 12.627 26.3765" stroke="#4A6AD0"/>
<path d="M18.3813 22.6904C16.4372 20.7672 14.7512 18.6691 13.7287 17.3205C13.0696 16.4512 12.9893 15.2889 13.4763 14.3127L14.3912 12.4791C14.8808 11.4977 14.7959 10.3273 14.1697 9.42687L9.91364 3.30715C8.89379 1.8407 6.82637 1.58479 5.47974 2.75832L2.19469 5.62108C1.35028 6.35695 0.974599 7.50586 1.30486 8.57612C3.91172 17.024 9.98334 23.7919 13.4862 27.289" stroke="#4A6AD0"/>
</svg>
