<svg width="76" height="76" viewBox="0 0 76 76" fill="none" xmlns="http://www.w3.org/2000/svg">
<path fill-rule="evenodd" clip-rule="evenodd" d="M38 76C58.9868 76 76 58.9868 76 38C76 17.0132 58.9868 0 38 0C17.0132 0 0 17.0132 0 38C0 58.9868 17.0132 76 38 76ZM52.9062 37.75C48.0738 37.75 44.1562 33.8325 44.1562 29H43.1562C43.1562 32.839 45.375 36.1598 48.6001 37.75H24V38.75H48.6001C45.375 40.3402 43.1562 43.661 43.1562 47.5H44.1562C44.1562 42.6675 48.0738 38.75 52.9062 38.75V37.75Z" fill="#4A6AD0"/>
</svg>
